<svg width="122" height="251" xmlns="http://www.w3.org/2000/svg" version="1.1">
 <g>
  <title>Layer 1</title>
  <g transform="matrix(1.19201 0 0 1.26107 6.45843 14.8319)" id="svg_1">
   <svg y="-9.51576" x="-2.51675" id="svg_134" width="95.29793" height="247.2" viewBox="0 0 95.29793259853902 247.2">
    <svg id="svg_135" width="95.29793" height="247.2" viewBox="0 0 123.08068315859323 319.2676278191442">
     <svg id="svg_136" width="123.08068" height="319.26763" viewBox="0 0 123.08068315859323 319.2676278191442">
      <svg id="svg_50" width="123.08068" height="319.26763" viewBox="0 0 123.08068315859323 319.2676278191442">
       <svg id="svg_137" width="123.08068" height="245.6723" viewBox="0 0 123.08068315859323 245.672304">
        <svg id="svg_138" data-palette-color="url(#59356d57-0c16-4a26-b039-a04f85542e3e)" height="245.6723" viewBox="4.13 -36.4 18.43 36.79" width="123.08068"/>
       </svg>
       <g id="svg_53" transform="matrix(1,0,0,1,0,303.669638839104)">
        <svg id="svg_139" width="123.08068" height="15.59799" viewBox="0 0 123.08068315859323 15.597988980040219">
         <svg id="svg_140" data-palette-color="url(#bf423a9b-6a63-403e-abd5-d4413e3b925e)" height="15.59799" viewBox="2.55 -35 343.25 43.5" width="123.08068"/>
        </svg>
       </g>
      </svg>
     </svg>
    </svg>
    <defs>
     <linearGradient id="svg_34" y2="0.55" y1="0.548" x2="1" x1="0">
      <stop offset="0" stop-color="#ff6cab"/>
      <stop offset="1" stop-color="#7366ff"/>
     </linearGradient>
     <linearGradient id="svg_23" y2="0.55" y1="0.548" x2="1" x1="0">
      <stop offset="0" stop-color="#ff6cab"/>
      <stop offset="1" stop-color="#7366ff"/>
     </linearGradient>
    </defs>
    <mask id="svg_35">
     <g id="svg_36">
      <svg id="svg_141" width="95.29793" height="247.2" viewBox="0 0 95.29793259853902 247.2">
       <svg id="svg_142" width="95.29793" height="247.2" viewBox="0 0 123.08068315859323 319.2676278191442">
        <svg id="svg_143" width="123.08068" height="319.26763" viewBox="0 0 123.08068315859323 319.2676278191442">
         <svg id="svg_70" width="123.08068" height="319.26763" viewBox="0 0 123.08068315859323 319.2676278191442">
          <svg id="svg_144" width="123.08068" height="245.6723" viewBox="0 0 123.08068315859323 245.672304">
           <svg id="svg_145" data-palette-color="url(#59356d57-0c16-4a26-b039-a04f85542e3e)" height="245.6723" viewBox="4.13 -36.4 18.43 36.79" width="123.08068">
            <path id="svg_75" class="wordmark-text-0" fill="white" d="m4.15,0l-0.02,-3.69q5.49,0.61 6.81,0.61q1.32,0 2.29,-0.14l0,0q4.76,-0.78 4.76,-6.33l0,0l0,-23.29l-10.45,0l0,-3.56l15.02,0l0,25.58q0,5.74 -2.5,8.48q-2.51,2.73 -8.95,2.73l0,0q-2.27,0 -6.96,-0.39l0,0z"/>
           </svg>
          </svg>
          <g id="svg_78" transform="matrix(1,0,0,1,0,303.669638839104)">
           <svg id="svg_146" width="123.08068" height="15.59799" viewBox="0 0 123.08068315859323 15.597988980040219">
            <svg id="svg_147" data-palette-color="url(#bf423a9b-6a63-403e-abd5-d4413e3b925e)" height="15.59799" viewBox="2.55 -35 343.25 43.5" width="123.08068">
             <path id="svg_79" class="slogan-text-1" fill="black" d="m16.25,0l-2.85,-14.2l-3.15,14.2l-6,0l-1.7,-35l3.7,0l1.5,31.25l4.15,-16.5l3.1,0l4.25,16.5l1.55,-31.25l3.45,0l-1.7,35l-6.3,0zm23.95,0q-4.4,0 -6.45,-1.88q-2.05,-1.87 -2.05,-6.12l0,0l0,-9q0,-4.3 1.85,-6.15q1.85,-1.85 6.15,-1.85l0,0l2.35,0q3.55,0 5.38,1.97q1.82,1.98 1.82,5.78l0,0l0,6.5l-13.3,0l0,3.75q0,1.55 0.95,2.4q0.95,0.85 2.8,0.85l0,0l7.95,0l0,3.75l-7.45,0zm4.9,-14.5l0,-3.75q0,-1.3 -0.85,-2.15q-0.85,-0.85 -2.15,-0.85l0,0l-2.9,0q-1.8,0 -2.52,0.82q-0.73,0.83 -0.73,2.43l0,0l0,3.5l9.15,0zm31.55,6.5q0,4.2 -2.07,6.1q-2.08,1.9 -6.43,1.9l0,0l-9.8,0l0,-35l4.25,0l0,11q1.5,-1 3.75,-1l0,0l1.8,0q4.4,0 6.45,1.87q2.05,1.88 2.05,6.13l0,0l0,9zm-10.8,-13.25q-1.65,0 -2.45,0.87q-0.8,0.88 -0.8,1.88l0,0l0,14.75l6.05,0q1.85,0 2.8,-0.85q0.95,-0.85 0.95,-2.4l0,0l0,-11q0,-1.55 -0.95,-2.4q-0.95,-0.85 -2.8,-0.85l0,0l-2.8,0zm65.05,13.35q0,4.3 -1.97,6.1q-1.98,1.8 -6.53,1.8l0,0l-10.3,0l0,-35l9.7,0q4.5,0 6.8,1.82q2.3,1.83 2.3,5.98l0,0l0,19.3zm-4.35,-19.75q0,-1.65 -1,-2.63q-1,-0.97 -2.65,-0.97l0,0l-6.45,0l0,27.5l6.4,0q1.9,0 2.8,-0.88q0.9,-0.87 0.9,-2.77l0,0l0,-20.25zm21.65,27.65q-4.4,0 -6.45,-1.88q-2.05,-1.87 -2.05,-6.12l0,0l0,-9q0,-4.3 1.85,-6.15q1.85,-1.85 6.15,-1.85l0,0l2.35,0q3.55,0 5.38,1.97q1.82,1.98 1.82,5.78l0,0l0,6.5l-13.3,0l0,3.75q0,1.55 0.95,2.4q0.95,0.85 2.8,0.85l0,0l7.95,0l0,3.75l-7.45,0zm4.9,-14.5l0,-3.75q0,-1.3 -0.85,-2.15q-0.85,-0.85 -2.15,-0.85l0,0l-2.9,0q-1.8,0 -2.52,0.82q-0.73,0.83 -0.73,2.43l0,0l0,3.5l9.15,0zm19.35,14.5l-7.25,-25l4.6,0l5.85,21.55l5.7,-21.55l4.45,0l-7.2,25l-6.15,0zm29.75,0q-4.4,0 -6.45,-1.88q-2.05,-1.87 -2.05,-6.12l0,0l0,-9q0,-4.3 1.85,-6.15q1.85,-1.85 6.15,-1.85l0,0l2.35,0q3.55,0 5.38,1.97q1.82,1.98 1.82,5.78l0,0l0,6.5l-13.3,0l0,3.75q0,1.55 0.95,2.4q0.95,0.85 2.8,0.85l0,0l7.95,0l0,3.75l-7.45,0zm4.9,-14.5l0,-3.75q0,-1.3 -0.85,-2.15q-0.85,-0.85 -2.15,-0.85l0,0l-2.9,0q-1.8,0 -2.52,0.82q-0.73,0.83 -0.73,2.43l0,0l0,3.5l9.15,0zm24,14.5q-1.7,0 -2.97,-1.2q-1.28,-1.2 -1.28,-3.8l0,0l0,-26.25l-7.35,0l0,-3.75l11.6,0l0,29.75q0,0.8 0.4,1.15q0.4,0.35 1.35,0.35l0,0l6.65,0l0,3.75l-8.4,0zm34.7,-8q0,4.2 -2.07,6.1q-2.08,1.9 -6.43,1.9l0,0l-1.65,0q-4.35,0 -6.43,-1.9q-2.07,-1.9 -2.07,-6.1l0,0l0,-9q0,-4.2 2.07,-6.1q2.08,-1.9 6.43,-1.9l0,0l1.65,0q4.35,0 6.43,1.9q2.07,1.9 2.07,6.1l0,0l0,9zm-4.25,-10q0,-1.55 -0.95,-2.4q-0.95,-0.85 -2.8,-0.85l0,0l-2.65,0q-1.85,0 -2.8,0.85q-0.95,0.85 -0.95,2.4l0,0l0,11q0,1.55 0.95,2.4q0.95,0.85 2.8,0.85l0,0l2.65,0q1.85,0 2.8,-0.85q0.95,-0.85 0.95,-2.4l0,0l0,-11zm12.8,-7l4,0l0,1.2q1.55,-1.2 4,-1.2l0,0l1.8,0q4.4,0 6.45,1.87q2.05,1.88 2.05,6.13l0,0l0,9q0,4.2 -2.08,6.1q-2.07,1.9 -6.42,1.9l0,0l-5.55,0l0,8.5l-4.25,0l0,-33.5zm7.5,3.75q-1.65,0 -2.45,0.87q-0.8,0.88 -0.8,1.88l0,0l0,14.75l6.05,0q1.85,0 2.8,-0.85q0.95,-0.85 0.95,-2.4l0,0l0,-11q0,-1.55 -0.95,-2.4q-0.95,-0.85 -2.8,-0.85l0,0l-2.8,0zm28.35,21.25q-4.4,0 -6.45,-1.88q-2.05,-1.87 -2.05,-6.12l0,0l0,-9q0,-4.3 1.85,-6.15q1.85,-1.85 6.15,-1.85l0,0l2.35,0q3.55,0 5.38,1.97q1.82,1.98 1.82,5.78l0,0l0,6.5l-13.3,0l0,3.75q0,1.55 0.95,2.4q0.95,0.85 2.8,0.85l0,0l7.95,0l0,3.75l-7.45,0zm4.9,-14.5l0,-3.75q0,-1.3 -0.85,-2.15q-0.85,-0.85 -2.15,-0.85l0,0l-2.9,0q-1.8,0 -2.52,0.82q-0.73,0.83 -0.73,2.43l0,0l0,3.5l9.15,0zm13.9,10.75l3.65,0l0,-17.5l-3.65,0l0,-3.75l7.65,0l0,1.35q1.65,-1.35 4,-1.35l0,0l5.15,0l0,4l-5.65,0q-1.6,0 -2.4,1.02q-0.8,1.03 -0.85,2.08l0,0l0,14.15l5.45,0l0,3.75l-13.35,0l0,-3.75z"/>
            </svg>
           </svg>
          </g>
         </svg>
        </svg>
       </svg>
       <defs>
        <mask/>
       </defs>
      </svg>
      <rect id="svg_148" visibility="hidden" fill="black" height="247.2" width="95.29793"/>
     </g>
    </mask>
    <rect id="svg_149" data-fill-palette-color="primary" mask="url(#svg_35)" fill="url(#svg_34)" height="247.2" width="95.29793"/>
    <mask id="svg_24">
     <g id="svg_25">
      <svg id="svg_150" width="95.29793" height="247.2" viewBox="0 0 95.29793259853902 247.2">
       <svg id="svg_151" width="95.29793" height="247.2" viewBox="0 0 123.08068315859323 319.2676278191442">
        <svg id="svg_152" width="123.08068" height="319.26763" viewBox="0 0 123.08068315859323 319.2676278191442">
         <svg id="svg_98" width="123.08068" height="319.26763" viewBox="0 0 123.08068315859323 319.2676278191442">
          <svg id="svg_153" width="123.08068" height="245.6723" viewBox="0 0 123.08068315859323 245.672304">
           <svg id="svg_154" data-palette-color="url(#59356d57-0c16-4a26-b039-a04f85542e3e)" height="245.6723" viewBox="4.13 -36.4 18.43 36.79" width="123.08068"/>
          </svg>
          <g id="svg_103" transform="matrix(1,0,0,1,0,303.669638839104)">
           <svg id="svg_155" width="123.08068" height="15.59799" viewBox="0 0 123.08068315859323 15.597988980040219">
            <svg id="svg_156" data-palette-color="url(#bf423a9b-6a63-403e-abd5-d4413e3b925e)" height="15.59799" viewBox="2.55 -35 343.25 43.5" width="123.08068">
             <path id="svg_104" class="slogan-text-1" fill="white" d="m16.25,0l-2.85,-14.2l-3.15,14.2l-6,0l-1.7,-35l3.7,0l1.5,31.25l4.15,-16.5l3.1,0l4.25,16.5l1.55,-31.25l3.45,0l-1.7,35l-6.3,0zm23.95,0q-4.4,0 -6.45,-1.88q-2.05,-1.87 -2.05,-6.12l0,0l0,-9q0,-4.3 1.85,-6.15q1.85,-1.85 6.15,-1.85l0,0l2.35,0q3.55,0 5.38,1.97q1.82,1.98 1.82,5.78l0,0l0,6.5l-13.3,0l0,3.75q0,1.55 0.95,2.4q0.95,0.85 2.8,0.85l0,0l7.95,0l0,3.75l-7.45,0zm4.9,-14.5l0,-3.75q0,-1.3 -0.85,-2.15q-0.85,-0.85 -2.15,-0.85l0,0l-2.9,0q-1.8,0 -2.52,0.82q-0.73,0.83 -0.73,2.43l0,0l0,3.5l9.15,0zm31.55,6.5q0,4.2 -2.07,6.1q-2.08,1.9 -6.43,1.9l0,0l-9.8,0l0,-35l4.25,0l0,11q1.5,-1 3.75,-1l0,0l1.8,0q4.4,0 6.45,1.87q2.05,1.88 2.05,6.13l0,0l0,9zm-10.8,-13.25q-1.65,0 -2.45,0.87q-0.8,0.88 -0.8,1.88l0,0l0,14.75l6.05,0q1.85,0 2.8,-0.85q0.95,-0.85 0.95,-2.4l0,0l0,-11q0,-1.55 -0.95,-2.4q-0.95,-0.85 -2.8,-0.85l0,0l-2.8,0zm65.05,13.35q0,4.3 -1.97,6.1q-1.98,1.8 -6.53,1.8l0,0l-10.3,0l0,-35l9.7,0q4.5,0 6.8,1.82q2.3,1.83 2.3,5.98l0,0l0,19.3zm-4.35,-19.75q0,-1.65 -1,-2.63q-1,-0.97 -2.65,-0.97l0,0l-6.45,0l0,27.5l6.4,0q1.9,0 2.8,-0.88q0.9,-0.87 0.9,-2.77l0,0l0,-20.25zm21.65,27.65q-4.4,0 -6.45,-1.88q-2.05,-1.87 -2.05,-6.12l0,0l0,-9q0,-4.3 1.85,-6.15q1.85,-1.85 6.15,-1.85l0,0l2.35,0q3.55,0 5.38,1.97q1.82,1.98 1.82,5.78l0,0l0,6.5l-13.3,0l0,3.75q0,1.55 0.95,2.4q0.95,0.85 2.8,0.85l0,0l7.95,0l0,3.75l-7.45,0zm4.9,-14.5l0,-3.75q0,-1.3 -0.85,-2.15q-0.85,-0.85 -2.15,-0.85l0,0l-2.9,0q-1.8,0 -2.52,0.82q-0.73,0.83 -0.73,2.43l0,0l0,3.5l9.15,0zm19.35,14.5l-7.25,-25l4.6,0l5.85,21.55l5.7,-21.55l4.45,0l-7.2,25l-6.15,0zm29.75,0q-4.4,0 -6.45,-1.88q-2.05,-1.87 -2.05,-6.12l0,0l0,-9q0,-4.3 1.85,-6.15q1.85,-1.85 6.15,-1.85l0,0l2.35,0q3.55,0 5.38,1.97q1.82,1.98 1.82,5.78l0,0l0,6.5l-13.3,0l0,3.75q0,1.55 0.95,2.4q0.95,0.85 2.8,0.85l0,0l7.95,0l0,3.75l-7.45,0zm4.9,-14.5l0,-3.75q0,-1.3 -0.85,-2.15q-0.85,-0.85 -2.15,-0.85l0,0l-2.9,0q-1.8,0 -2.52,0.82q-0.73,0.83 -0.73,2.43l0,0l0,3.5l9.15,0zm24,14.5q-1.7,0 -2.97,-1.2q-1.28,-1.2 -1.28,-3.8l0,0l0,-26.25l-7.35,0l0,-3.75l11.6,0l0,29.75q0,0.8 0.4,1.15q0.4,0.35 1.35,0.35l0,0l6.65,0l0,3.75l-8.4,0zm34.7,-8q0,4.2 -2.07,6.1q-2.08,1.9 -6.43,1.9l0,0l-1.65,0q-4.35,0 -6.43,-1.9q-2.07,-1.9 -2.07,-6.1l0,0l0,-9q0,-4.2 2.07,-6.1q2.08,-1.9 6.43,-1.9l0,0l1.65,0q4.35,0 6.43,1.9q2.07,1.9 2.07,6.1l0,0l0,9zm-4.25,-10q0,-1.55 -0.95,-2.4q-0.95,-0.85 -2.8,-0.85l0,0l-2.65,0q-1.85,0 -2.8,0.85q-0.95,0.85 -0.95,2.4l0,0l0,11q0,1.55 0.95,2.4q0.95,0.85 2.8,0.85l0,0l2.65,0q1.85,0 2.8,-0.85q0.95,-0.85 0.95,-2.4l0,0l0,-11zm12.8,-7l4,0l0,1.2q1.55,-1.2 4,-1.2l0,0l1.8,0q4.4,0 6.45,1.87q2.05,1.88 2.05,6.13l0,0l0,9q0,4.2 -2.08,6.1q-2.07,1.9 -6.42,1.9l0,0l-5.55,0l0,8.5l-4.25,0l0,-33.5zm7.5,3.75q-1.65,0 -2.45,0.87q-0.8,0.88 -0.8,1.88l0,0l0,14.75l6.05,0q1.85,0 2.8,-0.85q0.95,-0.85 0.95,-2.4l0,0l0,-11q0,-1.55 -0.95,-2.4q-0.95,-0.85 -2.8,-0.85l0,0l-2.8,0zm28.35,21.25q-4.4,0 -6.45,-1.88q-2.05,-1.87 -2.05,-6.12l0,0l0,-9q0,-4.3 1.85,-6.15q1.85,-1.85 6.15,-1.85l0,0l2.35,0q3.55,0 5.38,1.97q1.82,1.98 1.82,5.78l0,0l0,6.5l-13.3,0l0,3.75q0,1.55 0.95,2.4q0.95,0.85 2.8,0.85l0,0l7.95,0l0,3.75l-7.45,0zm4.9,-14.5l0,-3.75q0,-1.3 -0.85,-2.15q-0.85,-0.85 -2.15,-0.85l0,0l-2.9,0q-1.8,0 -2.52,0.82q-0.73,0.83 -0.73,2.43l0,0l0,3.5l9.15,0zm13.9,10.75l3.65,0l0,-17.5l-3.65,0l0,-3.75l7.65,0l0,1.35q1.65,-1.35 4,-1.35l0,0l5.15,0l0,4l-5.65,0q-1.6,0 -2.4,1.02q-0.8,1.03 -0.85,2.08l0,0l0,14.15l5.45,0l0,3.75l-13.35,0l0,-3.75z"/>
            </svg>
           </svg>
          </g>
         </svg>
        </svg>
       </svg>
       <defs>
        <mask/>
       </defs>
       <mask>
        <g id="svg_81">
         <svg id="svg_157" width="95.29793" height="247.2" viewBox="0 0 95.29793259853902 247.2">
          <svg id="svg_158" width="95.29793" height="247.2" viewBox="0 0 123.08068315859323 319.2676278191442">
           <svg id="svg_159" width="123.08068" height="319.26763" viewBox="0 0 123.08068315859323 319.2676278191442">
            <svg id="svg_121" width="123.08068" height="319.26763" viewBox="0 0 123.08068315859323 319.2676278191442">
             <svg id="svg_160" width="123.08068" height="245.6723" viewBox="0 0 123.08068315859323 245.672304">
              <svg id="svg_161" data-palette-color="url(#59356d57-0c16-4a26-b039-a04f85542e3e)" height="245.6723" viewBox="4.13 -36.4 18.43 36.79" width="123.08068">
               <path id="svg_126" class="wordmark-text-0" fill="black" d="m4.15,0l-0.02,-3.69q5.49,0.61 6.81,0.61q1.32,0 2.29,-0.14l0,0q4.76,-0.78 4.76,-6.33l0,0l0,-23.29l-10.45,0l0,-3.56l15.02,0l0,25.58q0,5.74 -2.5,8.48q-2.51,2.73 -8.95,2.73l0,0q-2.27,0 -6.96,-0.39l0,0z"/>
              </svg>
             </svg>
             <g id="svg_129" transform="matrix(1,0,0,1,0,303.669638839104)">
              <svg id="svg_162" width="123.08068" height="15.59799" viewBox="0 0 123.08068315859323 15.597988980040219">
               <svg id="svg_163" data-palette-color="url(#bf423a9b-6a63-403e-abd5-d4413e3b925e)" height="15.59799" viewBox="2.55 -35 343.25 43.5" width="123.08068">
                <path id="svg_130" class="slogan-text-1" fill="black" d="m16.25,0l-2.85,-14.2l-3.15,14.2l-6,0l-1.7,-35l3.7,0l1.5,31.25l4.15,-16.5l3.1,0l4.25,16.5l1.55,-31.25l3.45,0l-1.7,35l-6.3,0zm23.95,0q-4.4,0 -6.45,-1.88q-2.05,-1.87 -2.05,-6.12l0,0l0,-9q0,-4.3 1.85,-6.15q1.85,-1.85 6.15,-1.85l0,0l2.35,0q3.55,0 5.38,1.97q1.82,1.98 1.82,5.78l0,0l0,6.5l-13.3,0l0,3.75q0,1.55 0.95,2.4q0.95,0.85 2.8,0.85l0,0l7.95,0l0,3.75l-7.45,0zm4.9,-14.5l0,-3.75q0,-1.3 -0.85,-2.15q-0.85,-0.85 -2.15,-0.85l0,0l-2.9,0q-1.8,0 -2.52,0.82q-0.73,0.83 -0.73,2.43l0,0l0,3.5l9.15,0zm31.55,6.5q0,4.2 -2.07,6.1q-2.08,1.9 -6.43,1.9l0,0l-9.8,0l0,-35l4.25,0l0,11q1.5,-1 3.75,-1l0,0l1.8,0q4.4,0 6.45,1.87q2.05,1.88 2.05,6.13l0,0l0,9zm-10.8,-13.25q-1.65,0 -2.45,0.87q-0.8,0.88 -0.8,1.88l0,0l0,14.75l6.05,0q1.85,0 2.8,-0.85q0.95,-0.85 0.95,-2.4l0,0l0,-11q0,-1.55 -0.95,-2.4q-0.95,-0.85 -2.8,-0.85l0,0l-2.8,0zm65.05,13.35q0,4.3 -1.97,6.1q-1.98,1.8 -6.53,1.8l0,0l-10.3,0l0,-35l9.7,0q4.5,0 6.8,1.82q2.3,1.83 2.3,5.98l0,0l0,19.3zm-4.35,-19.75q0,-1.65 -1,-2.63q-1,-0.97 -2.65,-0.97l0,0l-6.45,0l0,27.5l6.4,0q1.9,0 2.8,-0.88q0.9,-0.87 0.9,-2.77l0,0l0,-20.25zm21.65,27.65q-4.4,0 -6.45,-1.88q-2.05,-1.87 -2.05,-6.12l0,0l0,-9q0,-4.3 1.85,-6.15q1.85,-1.85 6.15,-1.85l0,0l2.35,0q3.55,0 5.38,1.97q1.82,1.98 1.82,5.78l0,0l0,6.5l-13.3,0l0,3.75q0,1.55 0.95,2.4q0.95,0.85 2.8,0.85l0,0l7.95,0l0,3.75l-7.45,0zm4.9,-14.5l0,-3.75q0,-1.3 -0.85,-2.15q-0.85,-0.85 -2.15,-0.85l0,0l-2.9,0q-1.8,0 -2.52,0.82q-0.73,0.83 -0.73,2.43l0,0l0,3.5l9.15,0zm19.35,14.5l-7.25,-25l4.6,0l5.85,21.55l5.7,-21.55l4.45,0l-7.2,25l-6.15,0zm29.75,0q-4.4,0 -6.45,-1.88q-2.05,-1.87 -2.05,-6.12l0,0l0,-9q0,-4.3 1.85,-6.15q1.85,-1.85 6.15,-1.85l0,0l2.35,0q3.55,0 5.38,1.97q1.82,1.98 1.82,5.78l0,0l0,6.5l-13.3,0l0,3.75q0,1.55 0.95,2.4q0.95,0.85 2.8,0.85l0,0l7.95,0l0,3.75l-7.45,0zm4.9,-14.5l0,-3.75q0,-1.3 -0.85,-2.15q-0.85,-0.85 -2.15,-0.85l0,0l-2.9,0q-1.8,0 -2.52,0.82q-0.73,0.83 -0.73,2.43l0,0l0,3.5l9.15,0zm24,14.5q-1.7,0 -2.97,-1.2q-1.28,-1.2 -1.28,-3.8l0,0l0,-26.25l-7.35,0l0,-3.75l11.6,0l0,29.75q0,0.8 0.4,1.15q0.4,0.35 1.35,0.35l0,0l6.65,0l0,3.75l-8.4,0zm34.7,-8q0,4.2 -2.07,6.1q-2.08,1.9 -6.43,1.9l0,0l-1.65,0q-4.35,0 -6.43,-1.9q-2.07,-1.9 -2.07,-6.1l0,0l0,-9q0,-4.2 2.07,-6.1q2.08,-1.9 6.43,-1.9l0,0l1.65,0q4.35,0 6.43,1.9q2.07,1.9 2.07,6.1l0,0l0,9zm-4.25,-10q0,-1.55 -0.95,-2.4q-0.95,-0.85 -2.8,-0.85l0,0l-2.65,0q-1.85,0 -2.8,0.85q-0.95,0.85 -0.95,2.4l0,0l0,11q0,1.55 0.95,2.4q0.95,0.85 2.8,0.85l0,0l2.65,0q1.85,0 2.8,-0.85q0.95,-0.85 0.95,-2.4l0,0l0,-11zm12.8,-7l4,0l0,1.2q1.55,-1.2 4,-1.2l0,0l1.8,0q4.4,0 6.45,1.87q2.05,1.88 2.05,6.13l0,0l0,9q0,4.2 -2.08,6.1q-2.07,1.9 -6.42,1.9l0,0l-5.55,0l0,8.5l-4.25,0l0,-33.5zm7.5,3.75q-1.65,0 -2.45,0.87q-0.8,0.88 -0.8,1.88l0,0l0,14.75l6.05,0q1.85,0 2.8,-0.85q0.95,-0.85 0.95,-2.4l0,0l0,-11q0,-1.55 -0.95,-2.4q-0.95,-0.85 -2.8,-0.85l0,0l-2.8,0zm28.35,21.25q-4.4,0 -6.45,-1.88q-2.05,-1.87 -2.05,-6.12l0,0l0,-9q0,-4.3 1.85,-6.15q1.85,-1.85 6.15,-1.85l0,0l2.35,0q3.55,0 5.38,1.97q1.82,1.98 1.82,5.78l0,0l0,6.5l-13.3,0l0,3.75q0,1.55 0.95,2.4q0.95,0.85 2.8,0.85l0,0l7.95,0l0,3.75l-7.45,0zm4.9,-14.5l0,-3.75q0,-1.3 -0.85,-2.15q-0.85,-0.85 -2.15,-0.85l0,0l-2.9,0q-1.8,0 -2.52,0.82q-0.73,0.83 -0.73,2.43l0,0l0,3.5l9.15,0zm13.9,10.75l3.65,0l0,-17.5l-3.65,0l0,-3.75l7.65,0l0,1.35q1.65,-1.35 4,-1.35l0,0l5.15,0l0,4l-5.65,0q-1.6,0 -2.4,1.02q-0.8,1.03 -0.85,2.08l0,0l0,14.15l5.45,0l0,3.75l-13.35,0l0,-3.75z"/>
               </svg>
              </svg>
             </g>
            </svg>
           </svg>
          </svg>
          <defs>
           <mask/>
          </defs>
         </svg>
         <rect id="svg_164" visibility="hidden" fill="black" height="247.2" width="95.29793"/>
        </g>
       </mask>
      </svg>
      <rect id="svg_165" visibility="hidden" fill="black" height="247.2" width="95.29793"/>
     </g>
    </mask>
    <rect id="svg_166" data-fill-palette-color="secondary" mask="url(#svg_24)" fill="url(#svg_23)" height="247.2" width="95.29793"/>
   </svg>
   <rect x="-2.51675" y="-9.51576" id="svg_167" visibility="hidden" fill="none" height="247.2" width="95.29793"/>
  </g>
 </g>
</svg>