<svg width="314" height="354" xmlns="http://www.w3.org/2000/svg" version="1.1">
 <g>
  <title>Layer 1</title>
  <g y="-1.43166" x="1.48627" id="svg_19" transform="matrix(0.156966 0 0 0.162953 -0.699822 -2.20757)">
   <svg y="4.70508" x="14.22788" id="svg_131" width="2000" height="2250" preserveAspectRatio="xMidYMid meet" data-background-color="#000000" viewBox="0 0 320 360" xmlns:xlink="http://www.w3.org/1999/xlink" xmlns="http://www.w3.org/2000/svg">
    <g id="svg_1">
     <svg id="svg_132" width="320" height="360" viewBox="0 0 320 360">
      <rect id="svg_133" data-fill-palette-color="tertiary" mask="url(#svg_21)" fill="url(#svg_20)" height="360" width="320"/>
      <svg id="svg_134"/>
      <svg id="svg_135" width="320" height="360" viewBox="0 0 320 360">
       <g id="svg_136">
        <path id="svg_137" data-fill-palette-color="tertiary" text-anchor="none" font-size="none" font-weight="none" font-family="none" stroke-dashoffset="0" stroke-miterlimit="10" fill-rule="nonzero" fill="url(#svg_20)" d="m20.961,227.22l3.726,4.658l-1.863,-6.056c-0.466,-2.795 -3.726,0.466 -1.863,1.398m4.192,-2.795c1.397,2.329 2.795,4.658 2.795,6.987c0,3.261 2.795,4.658 5.123,5.589c-3.261,-3.726 -5.124,-13.974 -7.918,-12.576m178.864,-197.496c7.918,0 15.371,-0.932 23.756,0.931c20.495,5.124 37.729,15.371 49.374,29.811l32.606,52.169c1.397,13.042 4.192,27.482 3.726,43.319c3.261,0 2.795,-4.658 6.521,-5.59c-3.726,9.316 -5.59,20.961 -6.521,34.469c-2.329,-7.453 0,-18.632 0.466,-24.687c-3.261,5.124 -5.124,1.397 -5.124,-0.932c0.466,-3.726 -1.397,-3.261 -2.795,-4.658c-5.124,-4.658 -8.384,-9.782 -12.11,-17.7c2.329,-6.055 2.795,-14.905 -4.658,-19.563c-2.329,-1.397 -5.124,-3.726 -6.521,-7.453c-1.863,-5.124 -5.124,-11.179 -4.193,-19.097c0.466,-2.329 -6.987,5.124 -11.179,1.863c-18.166,-12.576 -36.332,-27.016 -58.224,-39.127c-11.645,0 -20.029,-4.192 -24.221,-9.316c-3.726,-4.658 -0.932,-10.713 4.658,-11.179c3.261,0 6.987,-0.932 9.782,0.932c0.466,-1.863 2.329,-4.192 4.657,-4.192m-46.113,-10.714l0.932,0.466c4.658,0.932 6.987,7.453 12.11,5.124c0,3.261 0.466,6.521 -0.466,8.85c-1.397,3.726 -5.59,3.726 -8.85,3.726c-31.208,-1.863 -49.374,11.179 -68.471,22.358c-5.124,3.261 -10.713,5.59 -14.906,9.782c-20.029,18.632 -41.921,35.866 -47.045,70.335l-4.192,38.195c-0.466,4.192 -5.124,8.384 -4.192,13.508l3.26,22.824c-3.261,-3.261 -5.124,0.932 -4.192,2.795c0.466,1.397 2.329,6.055 5.124,1.863c3.726,6.987 7.453,20.495 12.576,26.55c15.837,18.632 36.332,35.4 53.101,52.169c4.192,-0.932 7.453,-0.932 8.384,-3.727c1.397,2.795 -1.397,5.59 -3.726,6.056c7.453,4.658 15.837,8.85 27.016,9.781c14.44,0.932 27.948,3.261 40.524,6.522c6.521,-1.863 13.042,-2.795 20.029,-3.261c2.329,0 3.726,-3.726 6.521,-4.658l0.466,-4.658c2.795,4.192 2.329,-1.397 0.466,-4.192c3.261,2.795 4.192,5.124 5.589,6.987c0,-1.397 3.726,-6.521 3.727,-0.466l0.931,-6.055c1.397,-0.932 1.863,5.124 3.261,0.931c1.397,-4.192 4.192,-0.932 6.987,-2.329c-0.932,1.863 -0.466,5.59 2.794,3.261l3.727,-3.261c2.329,5.59 6.055,3.261 7.918,2.329c20.495,-13.042 40.99,-28.413 60.553,-43.784l-0.466,6.055l2.329,-7.453c2.329,2.329 4.192,0.466 5.124,-0.931c2.795,-4.658 6.521,-9.316 12.577,-13.508c-7.453,20.029 -16.303,35.866 -27.482,48.908l-4.658,5.59c0,3.261 -0.932,7.453 -4.658,7.918c-1.863,0.466 -5.59,-0.932 -8.384,1.863c-1.397,1.863 3.261,5.59 -0.466,2.795c-3.261,-2.329 -6.521,0 -10.248,0.932c-2.795,0.932 1.863,3.726 2.795,5.589c0.932,1.863 1.863,3.726 1.398,6.056l-5.124,-5.59c-6.055,3.261 -9.782,9.316 -14.906,13.974c-2.329,1.863 -1.397,5.124 -1.397,7.918c-3.261,0 -6.987,-0.932 -8.85,0.932c-1.397,1.863 -0.932,4.658 -0.932,7.453c-4.658,-0.466 -5.124,-7.453 -9.315,-6.056c-4.192,0.932 -8.85,1.397 -12.577,3.727c2.795,5.59 -4.658,2.329 -3.726,3.26c-6.987,-4.192 -13.042,-7.453 -20.495,-4.658c-15.837,-5.124 -35.4,-2.795 -49.84,-0.931c0,-2.329 0.466,-4.658 -0.466,-5.124c-0.932,2.329 -3.726,1.397 -3.26,1.397c-8.85,-6.055 -17.7,-9.782 -27.016,-14.905c-8.384,0.932 -16.303,-3.261 -18.632,-5.59c-6.521,-6.055 -13.974,-2.795 -20.029,-4.192c-13.042,-3.261 -17.7,-16.769 -19.098,-26.084c-0.932,-4.658 -4.658,-6.521 -6.055,-6.056c-6.055,-19.563 -15.371,-37.263 -22.824,-55.429c-1.863,-4.658 -1.397,-9.316 -1.397,-14.44c2.329,0.932 4.658,0.466 4.192,-2.794c-2.329,-15.371 -7.918,-27.016 -13.974,-38.195c3.261,-15.837 3.726,-34.469 11.179,-48.443c6.521,-12.576 18.632,-19.098 27.016,-29.811c2.795,-3.726 2.795,-8.85 5.59,-12.11c9.316,-9.316 18.632,-19.098 28.879,-27.482c4.658,-3.726 10.247,0 17.234,-1.397c2.329,-8.384 11.645,-15.837 20.495,-13.508c3.726,0.932 11.179,-8.85 13.508,-9.782c3.726,-1.397 1.863,3.726 1.863,6.987c8.85,-6.987 20.961,-10.713 32.14,-14.906"/>
       </g>
       <g id="svg_44" transform="matrix(1,0,0,1,114.91041804910418,90)">
        <svg id="svg_138" width="90.17916" height="180" viewBox="0 0 90.17916390179164 180">
         <svg id="svg_139" width="90.17916" height="180" viewBox="0 0 90.17916390179164 180">
          <svg id="svg_140" width="90.17916" height="180" viewBox="0 0 90.17916390179164 180">
           <svg id="svg_51" width="90.17916" height="180" viewBox="0 0 90.17916390179164 180">
            <svg id="svg_141" width="90.17916" height="180" viewBox="0 0 90.17916390179164 180">
             <svg id="svg_142" data-palette-color="url(#74f69ed9-ff06-4c5e-9840-d1d7bf74763d)" height="180" viewBox="4.13 -36.4 18.43 36.79" width="90.17916"/>
            </svg>
           </svg>
          </svg>
         </svg>
        </svg>
       </g>
      </svg>
      <defs>
       <linearGradient id="svg_29" y2="0.55" y1="0.548" x2="1" x1="0">
        <stop offset="0" stop-color="#ff6cab"/>
        <stop offset="1" stop-color="#7366ff"/>
       </linearGradient>
       <linearGradient id="svg_20" y2="0.55" y1="0.548" x2="1" x1="0">
        <stop offset="0" stop-color="#ff6cab"/>
        <stop offset="1" stop-color="#7366ff"/>
       </linearGradient>
      </defs>
      <mask id="svg_30">
       <g id="svg_31">
        <svg id="svg_143" width="320" height="360" viewBox="0 0 320 360">
         <svg id="svg_144"/>
         <svg id="svg_145" width="320" height="360" viewBox="0 0 320 360">
          <g id="svg_146">
           <path id="svg_147" text-anchor="none" font-size="none" font-weight="none" font-family="none" stroke-dashoffset="0" stroke-miterlimit="10" fill-rule="nonzero" fill="black" d="m20.961,227.22l3.726,4.658l-1.863,-6.056c-0.466,-2.795 -3.726,0.466 -1.863,1.398m4.192,-2.795c1.397,2.329 2.795,4.658 2.795,6.987c0,3.261 2.795,4.658 5.123,5.589c-3.261,-3.726 -5.124,-13.974 -7.918,-12.576m178.864,-197.496c7.918,0 15.371,-0.932 23.756,0.931c20.495,5.124 37.729,15.371 49.374,29.811l32.606,52.169c1.397,13.042 4.192,27.482 3.726,43.319c3.261,0 2.795,-4.658 6.521,-5.59c-3.726,9.316 -5.59,20.961 -6.521,34.469c-2.329,-7.453 0,-18.632 0.466,-24.687c-3.261,5.124 -5.124,1.397 -5.124,-0.932c0.466,-3.726 -1.397,-3.261 -2.795,-4.658c-5.124,-4.658 -8.384,-9.782 -12.11,-17.7c2.329,-6.055 2.795,-14.905 -4.658,-19.563c-2.329,-1.397 -5.124,-3.726 -6.521,-7.453c-1.863,-5.124 -5.124,-11.179 -4.193,-19.097c0.466,-2.329 -6.987,5.124 -11.179,1.863c-18.166,-12.576 -36.332,-27.016 -58.224,-39.127c-11.645,0 -20.029,-4.192 -24.221,-9.316c-3.726,-4.658 -0.932,-10.713 4.658,-11.179c3.261,0 6.987,-0.932 9.782,0.932c0.466,-1.863 2.329,-4.192 4.657,-4.192m-46.113,-10.714l0.932,0.466c4.658,0.932 6.987,7.453 12.11,5.124c0,3.261 0.466,6.521 -0.466,8.85c-1.397,3.726 -5.59,3.726 -8.85,3.726c-31.208,-1.863 -49.374,11.179 -68.471,22.358c-5.124,3.261 -10.713,5.59 -14.906,9.782c-20.029,18.632 -41.921,35.866 -47.045,70.335l-4.192,38.195c-0.466,4.192 -5.124,8.384 -4.192,13.508l3.26,22.824c-3.261,-3.261 -5.124,0.932 -4.192,2.795c0.466,1.397 2.329,6.055 5.124,1.863c3.726,6.987 7.453,20.495 12.576,26.55c15.837,18.632 36.332,35.4 53.101,52.169c4.192,-0.932 7.453,-0.932 8.384,-3.727c1.397,2.795 -1.397,5.59 -3.726,6.056c7.453,4.658 15.837,8.85 27.016,9.781c14.44,0.932 27.948,3.261 40.524,6.522c6.521,-1.863 13.042,-2.795 20.029,-3.261c2.329,0 3.726,-3.726 6.521,-4.658l0.466,-4.658c2.795,4.192 2.329,-1.397 0.466,-4.192c3.261,2.795 4.192,5.124 5.589,6.987c0,-1.397 3.726,-6.521 3.727,-0.466l0.931,-6.055c1.397,-0.932 1.863,5.124 3.261,0.931c1.397,-4.192 4.192,-0.932 6.987,-2.329c-0.932,1.863 -0.466,5.59 2.794,3.261l3.727,-3.261c2.329,5.59 6.055,3.261 7.918,2.329c20.495,-13.042 40.99,-28.413 60.553,-43.784l-0.466,6.055l2.329,-7.453c2.329,2.329 4.192,0.466 5.124,-0.931c2.795,-4.658 6.521,-9.316 12.577,-13.508c-7.453,20.029 -16.303,35.866 -27.482,48.908l-4.658,5.59c0,3.261 -0.932,7.453 -4.658,7.918c-1.863,0.466 -5.59,-0.932 -8.384,1.863c-1.397,1.863 3.261,5.59 -0.466,2.795c-3.261,-2.329 -6.521,0 -10.248,0.932c-2.795,0.932 1.863,3.726 2.795,5.589c0.932,1.863 1.863,3.726 1.398,6.056l-5.124,-5.59c-6.055,3.261 -9.782,9.316 -14.906,13.974c-2.329,1.863 -1.397,5.124 -1.397,7.918c-3.261,0 -6.987,-0.932 -8.85,0.932c-1.397,1.863 -0.932,4.658 -0.932,7.453c-4.658,-0.466 -5.124,-7.453 -9.315,-6.056c-4.192,0.932 -8.85,1.397 -12.577,3.727c2.795,5.59 -4.658,2.329 -3.726,3.26c-6.987,-4.192 -13.042,-7.453 -20.495,-4.658c-15.837,-5.124 -35.4,-2.795 -49.84,-0.931c0,-2.329 0.466,-4.658 -0.466,-5.124c-0.932,2.329 -3.726,1.397 -3.26,1.397c-8.85,-6.055 -17.7,-9.782 -27.016,-14.905c-8.384,0.932 -16.303,-3.261 -18.632,-5.59c-6.521,-6.055 -13.974,-2.795 -20.029,-4.192c-13.042,-3.261 -17.7,-16.769 -19.098,-26.084c-0.932,-4.658 -4.658,-6.521 -6.055,-6.056c-6.055,-19.563 -15.371,-37.263 -22.824,-55.429c-1.863,-4.658 -1.397,-9.316 -1.397,-14.44c2.329,0.932 4.658,0.466 4.192,-2.794c-2.329,-15.371 -7.918,-27.016 -13.974,-38.195c3.261,-15.837 3.726,-34.469 11.179,-48.443c6.521,-12.576 18.632,-19.098 27.016,-29.811c2.795,-3.726 2.795,-8.85 5.59,-12.11c9.316,-9.316 18.632,-19.098 28.879,-27.482c4.658,-3.726 10.247,0 17.234,-1.397c2.329,-8.384 11.645,-15.837 20.495,-13.508c3.726,0.932 11.179,-8.85 13.508,-9.782c3.726,-1.397 1.863,3.726 1.863,6.987c8.85,-6.987 20.961,-10.713 32.14,-14.906"/>
          </g>
          <g id="svg_66" transform="matrix(1,0,0,1,114.91041804910418,90)">
           <svg id="svg_148" width="90.17916" height="180" viewBox="0 0 90.17916390179164 180">
            <svg id="svg_149" width="90.17916" height="180" viewBox="0 0 90.17916390179164 180">
             <svg id="svg_150" width="90.17916" height="180" viewBox="0 0 90.17916390179164 180">
              <svg id="svg_75" width="90.17916" height="180" viewBox="0 0 90.17916390179164 180">
               <svg id="svg_151" width="90.17916" height="180" viewBox="0 0 90.17916390179164 180">
                <svg id="svg_152" data-palette-color="url(#74f69ed9-ff06-4c5e-9840-d1d7bf74763d)" height="180" viewBox="4.13 -36.4 18.43 36.79" width="90.17916">
                 <path id="svg_79" class="wordmark-text-0" fill="white" d="m4.15,0l-0.02,-3.69q5.49,0.61 6.81,0.61q1.32,0 2.29,-0.14l0,0q4.76,-0.78 4.76,-6.33l0,0l0,-23.29l-10.45,0l0,-3.56l15.02,0l0,25.58q0,5.74 -2.5,8.48q-2.51,2.73 -8.95,2.73l0,0q-2.27,0 -6.96,-0.39l0,0z"/>
                </svg>
               </svg>
              </svg>
             </svg>
            </svg>
           </svg>
          </g>
         </svg>
         <defs>
          <mask/>
         </defs>
        </svg>
        <rect id="svg_153" visibility="hidden" fill="black" height="360" width="320"/>
       </g>
      </mask>
      <rect id="svg_154" data-fill-palette-color="primary" mask="url(#svg_30)" fill="url(#svg_29)" height="360" width="320"/>
      <mask id="svg_21">
       <g id="svg_22">
        <svg id="svg_155" width="320" height="360" viewBox="0 0 320 360">
         <svg id="svg_156"/>
         <svg id="svg_157" width="320" height="360" viewBox="0 0 320 360">
          <g id="svg_158">
           <path id="svg_159" text-anchor="none" font-size="none" font-weight="none" font-family="none" stroke-dashoffset="0" stroke-miterlimit="10" fill-rule="nonzero" fill="white" d="m20.961,227.22l3.726,4.658l-1.863,-6.056c-0.466,-2.795 -3.726,0.466 -1.863,1.398m4.192,-2.795c1.397,2.329 2.795,4.658 2.795,6.987c0,3.261 2.795,4.658 5.123,5.589c-3.261,-3.726 -5.124,-13.974 -7.918,-12.576m178.864,-197.496c7.918,0 15.371,-0.932 23.756,0.931c20.495,5.124 37.729,15.371 49.374,29.811l32.606,52.169c1.397,13.042 4.192,27.482 3.726,43.319c3.261,0 2.795,-4.658 6.521,-5.59c-3.726,9.316 -5.59,20.961 -6.521,34.469c-2.329,-7.453 0,-18.632 0.466,-24.687c-3.261,5.124 -5.124,1.397 -5.124,-0.932c0.466,-3.726 -1.397,-3.261 -2.795,-4.658c-5.124,-4.658 -8.384,-9.782 -12.11,-17.7c2.329,-6.055 2.795,-14.905 -4.658,-19.563c-2.329,-1.397 -5.124,-3.726 -6.521,-7.453c-1.863,-5.124 -5.124,-11.179 -4.193,-19.097c0.466,-2.329 -6.987,5.124 -11.179,1.863c-18.166,-12.576 -36.332,-27.016 -58.224,-39.127c-11.645,0 -20.029,-4.192 -24.221,-9.316c-3.726,-4.658 -0.932,-10.713 4.658,-11.179c3.261,0 6.987,-0.932 9.782,0.932c0.466,-1.863 2.329,-4.192 4.657,-4.192m-46.113,-10.714l0.932,0.466c4.658,0.932 6.987,7.453 12.11,5.124c0,3.261 0.466,6.521 -0.466,8.85c-1.397,3.726 -5.59,3.726 -8.85,3.726c-31.208,-1.863 -49.374,11.179 -68.471,22.358c-5.124,3.261 -10.713,5.59 -14.906,9.782c-20.029,18.632 -41.921,35.866 -47.045,70.335l-4.192,38.195c-0.466,4.192 -5.124,8.384 -4.192,13.508l3.26,22.824c-3.261,-3.261 -5.124,0.932 -4.192,2.795c0.466,1.397 2.329,6.055 5.124,1.863c3.726,6.987 7.453,20.495 12.576,26.55c15.837,18.632 36.332,35.4 53.101,52.169c4.192,-0.932 7.453,-0.932 8.384,-3.727c1.397,2.795 -1.397,5.59 -3.726,6.056c7.453,4.658 15.837,8.85 27.016,9.781c14.44,0.932 27.948,3.261 40.524,6.522c6.521,-1.863 13.042,-2.795 20.029,-3.261c2.329,0 3.726,-3.726 6.521,-4.658l0.466,-4.658c2.795,4.192 2.329,-1.397 0.466,-4.192c3.261,2.795 4.192,5.124 5.589,6.987c0,-1.397 3.726,-6.521 3.727,-0.466l0.931,-6.055c1.397,-0.932 1.863,5.124 3.261,0.931c1.397,-4.192 4.192,-0.932 6.987,-2.329c-0.932,1.863 -0.466,5.59 2.794,3.261l3.727,-3.261c2.329,5.59 6.055,3.261 7.918,2.329c20.495,-13.042 40.99,-28.413 60.553,-43.784l-0.466,6.055l2.329,-7.453c2.329,2.329 4.192,0.466 5.124,-0.931c2.795,-4.658 6.521,-9.316 12.577,-13.508c-7.453,20.029 -16.303,35.866 -27.482,48.908l-4.658,5.59c0,3.261 -0.932,7.453 -4.658,7.918c-1.863,0.466 -5.59,-0.932 -8.384,1.863c-1.397,1.863 3.261,5.59 -0.466,2.795c-3.261,-2.329 -6.521,0 -10.248,0.932c-2.795,0.932 1.863,3.726 2.795,5.589c0.932,1.863 1.863,3.726 1.398,6.056l-5.124,-5.59c-6.055,3.261 -9.782,9.316 -14.906,13.974c-2.329,1.863 -1.397,5.124 -1.397,7.918c-3.261,0 -6.987,-0.932 -8.85,0.932c-1.397,1.863 -0.932,4.658 -0.932,7.453c-4.658,-0.466 -5.124,-7.453 -9.315,-6.056c-4.192,0.932 -8.85,1.397 -12.577,3.727c2.795,5.59 -4.658,2.329 -3.726,3.26c-6.987,-4.192 -13.042,-7.453 -20.495,-4.658c-15.837,-5.124 -35.4,-2.795 -49.84,-0.931c0,-2.329 0.466,-4.658 -0.466,-5.124c-0.932,2.329 -3.726,1.397 -3.26,1.397c-8.85,-6.055 -17.7,-9.782 -27.016,-14.905c-8.384,0.932 -16.303,-3.261 -18.632,-5.59c-6.521,-6.055 -13.974,-2.795 -20.029,-4.192c-13.042,-3.261 -17.7,-16.769 -19.098,-26.084c-0.932,-4.658 -4.658,-6.521 -6.055,-6.056c-6.055,-19.563 -15.371,-37.263 -22.824,-55.429c-1.863,-4.658 -1.397,-9.316 -1.397,-14.44c2.329,0.932 4.658,0.466 4.192,-2.794c-2.329,-15.371 -7.918,-27.016 -13.974,-38.195c3.261,-15.837 3.726,-34.469 11.179,-48.443c6.521,-12.576 18.632,-19.098 27.016,-29.811c2.795,-3.726 2.795,-8.85 5.59,-12.11c9.316,-9.316 18.632,-19.098 28.879,-27.482c4.658,-3.726 10.247,0 17.234,-1.397c2.329,-8.384 11.645,-15.837 20.495,-13.508c3.726,0.932 11.179,-8.85 13.508,-9.782c3.726,-1.397 1.863,3.726 1.863,6.987c8.85,-6.987 20.961,-10.713 32.14,-14.906"/>
          </g>
          <g id="svg_94" transform="matrix(1,0,0,1,114.91041804910418,90)">
           <svg id="svg_160" width="90.17916" height="180" viewBox="0 0 90.17916390179164 180">
            <svg id="svg_161" width="90.17916" height="180" viewBox="0 0 90.17916390179164 180">
             <svg id="svg_162" width="90.17916" height="180" viewBox="0 0 90.17916390179164 180">
              <svg id="svg_101" width="90.17916" height="180" viewBox="0 0 90.17916390179164 180">
               <svg id="svg_163" width="90.17916" height="180" viewBox="0 0 90.17916390179164 180">
                <svg id="svg_164" data-palette-color="url(#74f69ed9-ff06-4c5e-9840-d1d7bf74763d)" height="180" viewBox="4.13 -36.4 18.43 36.79" width="90.17916"/>
               </svg>
              </svg>
             </svg>
            </svg>
           </svg>
          </g>
         </svg>
         <defs>
          <mask/>
         </defs>
         <mask>
          <g id="svg_81">
           <svg id="svg_165" width="320" height="360" viewBox="0 0 320 360">
            <svg id="svg_166"/>
            <svg id="svg_167" width="320" height="360" viewBox="0 0 320 360">
             <g id="svg_168">
              <path id="svg_169" text-anchor="none" font-size="none" font-weight="none" font-family="none" stroke-dashoffset="0" stroke-miterlimit="10" fill-rule="nonzero" fill="black" d="m20.961,227.22l3.726,4.658l-1.863,-6.056c-0.466,-2.795 -3.726,0.466 -1.863,1.398m4.192,-2.795c1.397,2.329 2.795,4.658 2.795,6.987c0,3.261 2.795,4.658 5.123,5.589c-3.261,-3.726 -5.124,-13.974 -7.918,-12.576m178.864,-197.496c7.918,0 15.371,-0.932 23.756,0.931c20.495,5.124 37.729,15.371 49.374,29.811l32.606,52.169c1.397,13.042 4.192,27.482 3.726,43.319c3.261,0 2.795,-4.658 6.521,-5.59c-3.726,9.316 -5.59,20.961 -6.521,34.469c-2.329,-7.453 0,-18.632 0.466,-24.687c-3.261,5.124 -5.124,1.397 -5.124,-0.932c0.466,-3.726 -1.397,-3.261 -2.795,-4.658c-5.124,-4.658 -8.384,-9.782 -12.11,-17.7c2.329,-6.055 2.795,-14.905 -4.658,-19.563c-2.329,-1.397 -5.124,-3.726 -6.521,-7.453c-1.863,-5.124 -5.124,-11.179 -4.193,-19.097c0.466,-2.329 -6.987,5.124 -11.179,1.863c-18.166,-12.576 -36.332,-27.016 -58.224,-39.127c-11.645,0 -20.029,-4.192 -24.221,-9.316c-3.726,-4.658 -0.932,-10.713 4.658,-11.179c3.261,0 6.987,-0.932 9.782,0.932c0.466,-1.863 2.329,-4.192 4.657,-4.192m-46.113,-10.714l0.932,0.466c4.658,0.932 6.987,7.453 12.11,5.124c0,3.261 0.466,6.521 -0.466,8.85c-1.397,3.726 -5.59,3.726 -8.85,3.726c-31.208,-1.863 -49.374,11.179 -68.471,22.358c-5.124,3.261 -10.713,5.59 -14.906,9.782c-20.029,18.632 -41.921,35.866 -47.045,70.335l-4.192,38.195c-0.466,4.192 -5.124,8.384 -4.192,13.508l3.26,22.824c-3.261,-3.261 -5.124,0.932 -4.192,2.795c0.466,1.397 2.329,6.055 5.124,1.863c3.726,6.987 7.453,20.495 12.576,26.55c15.837,18.632 36.332,35.4 53.101,52.169c4.192,-0.932 7.453,-0.932 8.384,-3.727c1.397,2.795 -1.397,5.59 -3.726,6.056c7.453,4.658 15.837,8.85 27.016,9.781c14.44,0.932 27.948,3.261 40.524,6.522c6.521,-1.863 13.042,-2.795 20.029,-3.261c2.329,0 3.726,-3.726 6.521,-4.658l0.466,-4.658c2.795,4.192 2.329,-1.397 0.466,-4.192c3.261,2.795 4.192,5.124 5.589,6.987c0,-1.397 3.726,-6.521 3.727,-0.466l0.931,-6.055c1.397,-0.932 1.863,5.124 3.261,0.931c1.397,-4.192 4.192,-0.932 6.987,-2.329c-0.932,1.863 -0.466,5.59 2.794,3.261l3.727,-3.261c2.329,5.59 6.055,3.261 7.918,2.329c20.495,-13.042 40.99,-28.413 60.553,-43.784l-0.466,6.055l2.329,-7.453c2.329,2.329 4.192,0.466 5.124,-0.931c2.795,-4.658 6.521,-9.316 12.577,-13.508c-7.453,20.029 -16.303,35.866 -27.482,48.908l-4.658,5.59c0,3.261 -0.932,7.453 -4.658,7.918c-1.863,0.466 -5.59,-0.932 -8.384,1.863c-1.397,1.863 3.261,5.59 -0.466,2.795c-3.261,-2.329 -6.521,0 -10.248,0.932c-2.795,0.932 1.863,3.726 2.795,5.589c0.932,1.863 1.863,3.726 1.398,6.056l-5.124,-5.59c-6.055,3.261 -9.782,9.316 -14.906,13.974c-2.329,1.863 -1.397,5.124 -1.397,7.918c-3.261,0 -6.987,-0.932 -8.85,0.932c-1.397,1.863 -0.932,4.658 -0.932,7.453c-4.658,-0.466 -5.124,-7.453 -9.315,-6.056c-4.192,0.932 -8.85,1.397 -12.577,3.727c2.795,5.59 -4.658,2.329 -3.726,3.26c-6.987,-4.192 -13.042,-7.453 -20.495,-4.658c-15.837,-5.124 -35.4,-2.795 -49.84,-0.931c0,-2.329 0.466,-4.658 -0.466,-5.124c-0.932,2.329 -3.726,1.397 -3.26,1.397c-8.85,-6.055 -17.7,-9.782 -27.016,-14.905c-8.384,0.932 -16.303,-3.261 -18.632,-5.59c-6.521,-6.055 -13.974,-2.795 -20.029,-4.192c-13.042,-3.261 -17.7,-16.769 -19.098,-26.084c-0.932,-4.658 -4.658,-6.521 -6.055,-6.056c-6.055,-19.563 -15.371,-37.263 -22.824,-55.429c-1.863,-4.658 -1.397,-9.316 -1.397,-14.44c2.329,0.932 4.658,0.466 4.192,-2.794c-2.329,-15.371 -7.918,-27.016 -13.974,-38.195c3.261,-15.837 3.726,-34.469 11.179,-48.443c6.521,-12.576 18.632,-19.098 27.016,-29.811c2.795,-3.726 2.795,-8.85 5.59,-12.11c9.316,-9.316 18.632,-19.098 28.879,-27.482c4.658,-3.726 10.247,0 17.234,-1.397c2.329,-8.384 11.645,-15.837 20.495,-13.508c3.726,0.932 11.179,-8.85 13.508,-9.782c3.726,-1.397 1.863,3.726 1.863,6.987c8.85,-6.987 20.961,-10.713 32.14,-14.906"/>
             </g>
             <g id="svg_116" transform="matrix(1,0,0,1,114.91041804910418,90)">
              <svg id="svg_170" width="90.17916" height="180" viewBox="0 0 90.17916390179164 180">
               <svg id="svg_171" width="90.17916" height="180" viewBox="0 0 90.17916390179164 180">
                <svg id="svg_172" width="90.17916" height="180" viewBox="0 0 90.17916390179164 180">
                 <svg id="svg_125" width="90.17916" height="180" viewBox="0 0 90.17916390179164 180">
                  <svg id="svg_173" width="90.17916" height="180" viewBox="0 0 90.17916390179164 180">
                   <svg id="svg_174" data-palette-color="url(#74f69ed9-ff06-4c5e-9840-d1d7bf74763d)" height="180" viewBox="4.13 -36.4 18.43 36.79" width="90.17916">
                    <path id="svg_129" class="wordmark-text-0" fill="black" d="m4.15,0l-0.02,-3.69q5.49,0.61 6.81,0.61q1.32,0 2.29,-0.14l0,0q4.76,-0.78 4.76,-6.33l0,0l0,-23.29l-10.45,0l0,-3.56l15.02,0l0,25.58q0,5.74 -2.5,8.48q-2.51,2.73 -8.95,2.73l0,0q-2.27,0 -6.96,-0.39l0,0z"/>
                   </svg>
                  </svg>
                 </svg>
                </svg>
               </svg>
              </svg>
             </g>
            </svg>
            <defs>
             <mask/>
            </defs>
           </svg>
           <rect id="svg_175" visibility="hidden" fill="black" height="360" width="320"/>
          </g>
         </mask>
        </svg>
        <rect id="svg_176" visibility="hidden" fill="black" height="360" width="320"/>
       </g>
      </mask>
     </svg>
     <rect id="svg_177" visibility="hidden" fill="none" height="360" width="320"/>
    </g>
   </svg>
  </g>
  <path id="svg_1683" d="m7.99997,12.33498" opacity="NaN" stroke="null" fill="#000000"/>
 </g>
</svg>